<?xml version="1.0" encoding="iso-8859-1"?>
<!-- Uploaded to: SVG Repo, www.svgrepo.com, Generator: SVG Repo Mixer Tools -->
<svg version="1.1" id="Layer_1" xmlns="http://www.w3.org/2000/svg" xmlns:xlink="http://www.w3.org/1999/xlink" 
	 viewBox="0 0 512.853 512.853" xml:space="preserve">
<g transform="translate(1 1)">
	<g>
		<path style="fill:#FFE100;" d="M16.067,511.427c-2.56,0-4.267-0.853-5.973-2.56c-3.413-3.413-3.413-8.533,0-11.947l92.16-87.893
			c3.413-3.413,8.533-3.413,11.947,0c3.413,3.413,3.413,8.533,0,11.947l-92.16,87.893C20.333,510.573,17.773,511.427,16.067,511.427
			z"/>
		<path style="fill:#FFE100;" d="M502.467,502.893c-1.707,0-4.267-0.853-5.973-2.56l-83.627-78.507
			c-3.413-3.413-3.413-8.533,0-11.947c3.413-3.413,8.533-3.413,11.947,0l83.627,78.507c3.413,3.413,3.413,8.533,0,11.947
			C506.733,502.04,505.027,502.893,502.467,502.893z"/>
		<path style="fill:#FFE100;" d="M417.133,298.093c0,104.107-83.627,187.733-187.733,187.733
			c-81.067,0-162.133-83.627-162.133-187.733S148.333,110.36,229.4,110.36C333.507,110.36,417.133,194.84,417.133,298.093"/>
	</g>
	<path style="fill:#FFA800;" d="M255,110.36c-4.267,0-8.533,0-12.8,0.853c98.133,5.973,174.933,87.893,174.933,186.88
		S340.333,479,242.2,484.973c4.267,0,8.533,0.853,12.8,0.853c104.107,0,187.733-83.627,187.733-187.733S359.107,110.36,255,110.36"
		/>
	<path style="fill:#FFE100;" d="M280.6,110.36c-4.267,0-8.533,0-12.8,0.853c98.133,5.973,174.933,87.893,174.933,186.88
		S365.933,479,267.8,484.973c4.267,0,8.533,0.853,12.8,0.853c104.107,0,187.733-83.627,187.733-187.733S384.707,110.36,280.6,110.36
		"/>
	<path style="fill:#FFFFFF;" d="M255,485.827c4.267,0,8.533,0,12.8-0.853C169.667,479,92.867,397.08,92.867,298.093
		s76.8-180.907,174.933-186.88c-4.267-0.853-8.533-0.853-12.8-0.853c-103.253,0-187.733,84.48-187.733,187.733
		S151.747,485.827,255,485.827"/>
	<g>
		<path style="fill:#63D3FD;" d="M109.933,59.16c0,28.16-23.04,51.2-51.2,51.2s-51.2-23.04-51.2-51.2s23.04-51.2,51.2-51.2
			S109.933,31,109.933,59.16"/>
		<path style="fill:#63D3FD;" d="M476.867,59.16c0,28.16-23.04,51.2-51.2,51.2c40.107,0-25.6,0-25.6-51.2
			c0-28.16,20.48-51.2,25.6-51.2C453.827,7.96,476.867,31,476.867,59.16"/>
	</g>
	<path style="fill:#3DB9F9;" d="M451.267,7.96c-4.267,0-8.533,0.853-12.8,1.707c22.187,5.973,38.4,25.6,38.4,49.493
		s-16.213,43.52-38.4,49.493c4.267,0.853,8.533,1.707,12.8,1.707c28.16,0,51.2-23.04,51.2-51.2S479.427,7.96,451.267,7.96"/>
	<path style="fill:#FFFFFF;" d="M58.733,110.36c4.267,0,8.533-0.853,12.8-1.707c-22.187-5.973-38.4-25.6-38.4-49.493
		s16.213-43.52,38.4-49.493C67.267,8.813,63,7.96,58.733,7.96c-28.16,0-51.2,23.04-51.2,51.2S30.573,110.36,58.733,110.36"/>
	<path d="M255,494.36c-108.373,0-196.267-87.893-196.267-196.267S146.627,101.827,255,101.827s196.267,87.893,196.267,196.267
		S363.373,494.36,255,494.36z M255,118.893c-98.987,0-179.2,80.213-179.2,179.2s80.213,179.2,179.2,179.2s179.2-80.213,179.2-179.2
		S353.987,118.893,255,118.893z"/>
	<path d="M58.733,118.893C25.453,118.893-1,92.44-1,59.16S25.453-0.573,58.733-0.573s59.733,26.453,59.733,59.733
		S92.013,118.893,58.733,118.893z M58.733,16.493c-23.893,0-42.667,18.773-42.667,42.667s18.773,42.667,42.667,42.667
		S101.4,83.053,101.4,59.16S82.627,16.493,58.733,16.493z"/>
	<path d="M451.267,118.893c-33.28,0-59.733-26.453-59.733-59.733s26.453-59.733,59.733-59.733S511,25.88,511,59.16
		S484.547,118.893,451.267,118.893z M451.267,16.493c-23.893,0-42.667,18.773-42.667,42.667s18.773,42.667,42.667,42.667
		c23.893,0,42.667-18.773,42.667-42.667S475.16,16.493,451.267,16.493z"/>
	
		<rect x="104.137" y="87.748" transform="matrix(-0.7071 0.7071 -0.7071 -0.7071 277.92 126.9369)" width="17.067" height="66.559"/>
	
		<rect x="360.985" y="112.492" transform="matrix(-0.7071 0.7071 -0.7071 -0.7071 758.6292 -72.1846)" width="66.559" height="17.067"/>
	<path d="M7.533,511.427c-2.56,0-4.267-0.853-5.973-2.56c-3.413-3.413-3.413-8.533,0-11.947l92.16-87.893
		c3.413-3.413,8.533-3.413,11.947,0c3.413,3.413,3.413,8.533,0,11.947l-92.16,87.893C11.8,510.573,9.24,511.427,7.533,511.427z"/>
	<path d="M502.467,511.427c-1.707,0-4.267-0.853-5.973-2.56l-91.307-87.04c-3.413-3.413-3.413-8.533,0-11.947
		c3.413-3.413,8.533-3.413,11.947,0l92.16,87.04c3.413,3.413,3.413,8.533,0,11.947C506.733,510.573,505.027,511.427,502.467,511.427
		z"/>
	<path d="M304.493,263.96c-71.68,0-129.707-18.773-163.84-44.373c-19.627-15.36-30.72-32.427-30.72-49.493
		c0-5.12,3.413-8.533,8.533-8.533s8.533,3.413,8.533,8.533c0,11.093,8.533,23.893,24.747,35.84
		c47.787,36.693,151.04,58.027,272.213,23.893c4.267-0.853,9.387,1.707,10.24,5.973s-1.707,9.387-5.973,10.24
		C383.853,258.84,342.893,263.96,304.493,263.96z"/>
	<path d="M308.76,349.293c-88.747,0-168.107-24.747-211.627-57.173c-19.627-15.36-29.867-30.72-29.867-45.227
		c0-5.12,3.413-8.533,8.533-8.533c5.12,0,8.533,3.413,8.533,8.533c0,8.533,8.533,20.48,23.04,31.573
		c86.187,64.853,241.493,60.587,324.267,37.547c4.267-1.707,9.387,1.707,10.24,5.973c1.707,4.267-1.707,9.387-5.973,10.24
		C394.093,344.173,350.573,349.293,308.76,349.293z"/>
	<path d="M344.6,426.947c-151.893,0-239.787-28.16-280.747-90.453c-2.56-4.267-1.707-9.387,2.56-11.947
		c4.267-2.56,9.387-1.707,11.947,2.56c42.667,63.147,141.653,88.747,322.56,81.92c4.267,0,8.533,3.413,8.533,8.533
		s-3.413,8.533-8.533,8.533C380.44,426.947,362.52,426.947,344.6,426.947z"/>
	<path d="M145.773,221.293c-5.12,0-8.533-3.413-8.533-8.533c0-5.12,3.413-8.533,8.533-8.533c46.08,0,84.48-29.013,127.147-96.427
		c2.56-4.267,7.68-5.12,11.947-2.56c4.267,2.56,5.12,7.68,2.56,11.947C255,168.387,212.333,221.293,145.773,221.293z"/>
	<path d="M225.133,255.427c-5.12,0-8.533-3.413-8.533-8.533c0-5.12,3.413-8.533,8.533-8.533c56.32,0,96.427-51.2,128-100.693
		c2.56-4.267,7.68-5.12,11.947-2.56c4.267,2.56,5.12,7.68,2.56,11.947C332.653,200.813,289.133,255.427,225.133,255.427z"/>
	<path d="M41.667,76.227c-5.12,0-8.533-3.413-8.533-8.533c0-18.773,15.36-34.133,34.133-34.133c5.12,0,8.533,3.413,8.533,8.533
		s-3.413,8.533-8.533,8.533c-9.387,0-17.067,7.68-17.067,17.067C50.2,72.813,46.787,76.227,41.667,76.227z"/>
	<path d="M434.2,76.227c-5.12,0-8.533-3.413-8.533-8.533c0-18.773,15.36-34.133,34.133-34.133c5.12,0,8.533,3.413,8.533,8.533
		s-3.413,8.533-8.533,8.533c-9.387,0-17.067,7.68-17.067,17.067C442.733,72.813,439.32,76.227,434.2,76.227z"/>
</g>
</svg>