<svg enable-background="new 0 0 64 64" height="64" viewBox="0 0 64 64" width="64" xmlns="http://www.w3.org/2000/svg"><path d="m23.375 17.765c-.299 0-.595-.133-.791-.388l-6.153-7.94c-.339-.437-.259-1.065.177-1.403.436-.339 1.065-.259 1.402.178l6.153 7.94c.339.437.259 1.064-.178 1.402-.18.142-.396.211-.61.211z" fill="#ccd1d9"/><path d="m26 17.765c-.553 0-1-.447-1-1v-11.515c0-.553.447-1 1-1s1 .447 1 1v11.515c0 .552-.447 1-1 1z" fill="#ccd1d9"/><path d="m19.98 29.25h-16c1.459-2.96 4.5-5 8-5 1.1 0 2.14.2 3.109.56 2.141.8 3.882 2.4 4.891 4.44z" fill="#48cfad"/><path d="m15.09 24.81c-.97-.359-2.01-.56-3.109-.56-.68 0-1.332.098-1.969.243.367.086.729.187 1.078.316 2.141.801 3.881 2.4 4.891 4.44h4c-1.01-2.039-2.751-3.639-4.891-4.439z" fill="#37bc9b"/><path d="m35.88 18.18c-3 2.75-4.88 6.69-4.88 11.07h-11.02c-1.01-2.04-2.75-3.64-4.891-4.44.51-4.3 3.29-7.89 7.11-9.56 1.47-.64 3.09-1 4.8-1 3.521 0 6.681 1.51 8.881 3.93z" fill="#ac92ec"/><path d="m31 29.25c0-4.38 1.88-8.32 4.88-11.07 2.66-2.439 6.22-3.93 10.12-3.93 8.279 0 15 6.72 15 15z" fill="#a0d468"/><path d="m46 14.25c-.68 0-1.345.061-2.002.148 7.334.981 13.002 7.251 13.002 14.852h4c0-8.28-6.721-15-15-15z" fill="#8cc152"/><path d="m1 29.25h2.98 16 11.02 30 2v4h-1-60-1z" fill="#ffd2a6"/><path d="m61 29.25h-2v4h3 1v-4z" fill="#f7c292"/><path d="m62 33.25v22c0 4.42-3.58 8-8 8h-44c-4.42 0-8-3.58-8-8v-22z" fill="#f7c292"/><path d="m58 33.25v22c0 4.42-3.58 8-8 8h4c4.42 0 8-3.58 8-8v-22z" fill="#eab081"/><path d="m27.043 14.252c-.666.004-1.316.071-1.953.178 3.75.631 6.902 3.001 8.615 6.249.635-.909 1.359-1.751 2.175-2.499-2.191-2.41-5.335-3.915-8.837-3.928z" fill="#967adc"/><path d="m6 41.25c.256 0 .512-.098.707-.293l1.293-1.293 1.293 1.293c.195.195.451.293.707.293s.512-.098.707-.293l1.293-1.293 1.293 1.293c.195.195.451.293.707.293s.512-.098.707-.293l1.293-1.293 1.293 1.293c.195.195.451.293.707.293s.512-.098.707-.293l1.293-1.293 1.293 1.293c.195.195.451.293.707.293s.512-.098.707-.293l1.293-1.293 1.293 1.293c.195.195.451.293.707.293s.512-.098.707-.293l1.293-1.293 1.293 1.293c.195.195.451.293.707.293s.512-.098.707-.293l1.293-1.293 1.293 1.293c.195.195.451.293.707.293s.512-.098.707-.293l1.293-1.293 1.293 1.293c.195.195.451.293.707.293s.512-.098.707-.293l1.293-1.293 1.293 1.293c.195.195.451.293.707.293s.512-.098.707-.293l1.293-1.293 1.293 1.293c.195.195.451.293.707.293s.512-.098.707-.293l1.293-1.293 1.293 1.293c.195.195.451.293.707.293s.512-.098.707-.293l1.293-1.293 1.293 1.293c.195.195.451.293.707.293s.512-.098.707-.293l1.293-1.293 1.293 1.293c.195.195.451.293.707.293s.512-.098.707-.293c.391-.391.391-1.023 0-1.414l-2-2c-.391-.391-1.023-.391-1.414 0l-1.293 1.293-1.293-1.293c-.391-.391-1.023-.391-1.414 0l-1.293 1.293-1.293-1.293c-.391-.391-1.023-.391-1.414 0l-1.293 1.293-1.293-1.293c-.391-.391-1.023-.391-1.414 0l-1.293 1.293-1.293-1.293c-.391-.391-1.023-.391-1.414 0l-1.293 1.293-1.293-1.293c-.391-.391-1.023-.391-1.414 0l-1.293 1.293-1.293-1.293c-.391-.391-1.023-.391-1.414 0l-1.293 1.293-1.293-1.293c-.391-.391-1.023-.391-1.414 0l-1.293 1.293-1.293-1.293c-.391-.391-1.023-.391-1.414 0l-1.293 1.293-1.293-1.293c-.391-.391-1.023-.391-1.414 0l-1.293 1.293-1.293-1.293c-.391-.391-1.023-.391-1.414 0l-1.293 1.293-1.293-1.293c-.391-.391-1.023-.391-1.414 0l-1.293 1.293-1.293-1.293c-.391-.391-1.023-.391-1.414 0l-2 2c-.391.391-.391 1.023 0 1.414.195.195.451.293.707.293z" fill="#eab081"/><path d="m56.707 43.543c-.391-.391-1.023-.391-1.414 0l-1.293 1.293-1.293-1.293c-.391-.391-1.023-.391-1.414 0l-1.293 1.293-1.293-1.293c-.391-.391-1.023-.391-1.414 0l-1.293 1.293-1.293-1.293c-.391-.391-1.023-.391-1.414 0l-1.293 1.293-1.293-1.293c-.391-.391-1.023-.391-1.414 0l-1.293 1.293-1.293-1.293c-.391-.391-1.023-.391-1.414 0l-1.293 1.293-1.293-1.293c-.391-.391-1.023-.391-1.414 0l-1.293 1.293-1.293-1.293c-.391-.391-1.023-.391-1.414 0l-1.293 1.293-1.293-1.293c-.391-.391-1.023-.391-1.414 0l-1.293 1.293-1.293-1.293c-.391-.391-1.023-.391-1.414 0l-1.293 1.293-1.293-1.293c-.391-.391-1.023-.391-1.414 0l-1.293 1.293-1.293-1.293c-.391-.391-1.023-.391-1.414 0l-1.293 1.293-1.293-1.293c-.391-.391-1.023-.391-1.414 0l-2 2c-.391.391-.391 1.023 0 1.414.195.195.451.293.707.293s.512-.098.707-.293l1.293-1.293 1.293 1.293c.195.195.451.293.707.293s.512-.098.707-.293l1.293-1.293 1.293 1.293c.195.195.451.293.707.293s.512-.098.707-.293l1.293-1.293 1.293 1.293c.195.195.451.293.707.293s.512-.098.707-.293l1.293-1.293 1.293 1.293c.195.195.451.293.707.293s.512-.098.707-.293l1.293-1.293 1.293 1.293c.195.195.451.293.707.293s.512-.098.707-.293l1.293-1.293 1.293 1.293c.195.195.451.293.707.293s.512-.098.707-.293l1.293-1.293 1.293 1.293c.195.195.451.293.707.293s.512-.098.707-.293l1.293-1.293 1.293 1.293c.195.195.451.293.707.293s.512-.098.707-.293l1.293-1.293 1.293 1.293c.195.195.451.293.707.293s.512-.098.707-.293l1.293-1.293 1.293 1.293c.195.195.451.293.707.293s.512-.098.707-.293l1.293-1.293 1.293 1.293c.195.195.451.293.707.293s.512-.098.707-.293l1.293-1.293 1.293 1.293c.195.195.451.293.707.293s.512-.098.707-.293l1.293-1.293 1.293 1.293c.195.195.451.293.707.293s.512-.098.707-.293c.391-.391.391-1.023 0-1.414z" fill="#eab081"/><path d="m56.707 49.543c-.391-.391-1.023-.391-1.414 0l-1.293 1.293-1.293-1.293c-.391-.391-1.023-.391-1.414 0l-1.293 1.293-1.293-1.293c-.391-.391-1.023-.391-1.414 0l-1.293 1.293-1.293-1.293c-.391-.391-1.023-.391-1.414 0l-1.293 1.293-1.293-1.293c-.391-.391-1.023-.391-1.414 0l-1.293 1.293-1.293-1.293c-.391-.391-1.023-.391-1.414 0l-1.293 1.293-1.293-1.293c-.391-.391-1.023-.391-1.414 0l-1.293 1.293-1.293-1.293c-.391-.391-1.023-.391-1.414 0l-1.293 1.293-1.293-1.293c-.391-.391-1.023-.391-1.414 0l-1.293 1.293-1.293-1.293c-.391-.391-1.023-.391-1.414 0l-1.293 1.293-1.293-1.293c-.391-.391-1.023-.391-1.414 0l-1.293 1.293-1.293-1.293c-.391-.391-1.023-.391-1.414 0l-1.293 1.293-1.293-1.293c-.391-.391-1.023-.391-1.414 0l-2 2c-.391.391-.391 1.023 0 1.414.195.195.451.293.707.293s.512-.098.707-.293l1.293-1.293 1.293 1.293c.195.195.451.293.707.293s.512-.098.707-.293l1.293-1.293 1.293 1.293c.195.195.451.293.707.293s.512-.098.707-.293l1.293-1.293 1.293 1.293c.195.195.451.293.707.293s.512-.098.707-.293l1.293-1.293 1.293 1.293c.195.195.451.293.707.293s.512-.098.707-.293l1.293-1.293 1.293 1.293c.195.195.451.293.707.293s.512-.098.707-.293l1.293-1.293 1.293 1.293c.195.195.451.293.707.293s.512-.098.707-.293l1.293-1.293 1.293 1.293c.195.195.451.293.707.293s.512-.098.707-.293l1.293-1.293 1.293 1.293c.195.195.451.293.707.293s.512-.098.707-.293l1.293-1.293 1.293 1.293c.195.195.451.293.707.293s.512-.098.707-.293l1.293-1.293 1.293 1.293c.195.195.451.293.707.293s.512-.098.707-.293l1.293-1.293 1.293 1.293c.195.195.451.293.707.293s.512-.098.707-.293l1.293-1.293 1.293 1.293c.195.195.451.293.707.293s.512-.098.707-.293l1.293-1.293 1.293 1.293c.195.195.451.293.707.293s.512-.098.707-.293c.391-.391.391-1.023 0-1.414z" fill="#eab081"/><path d="m55.293 55.543-1.293 1.293-1.293-1.293c-.391-.391-1.023-.391-1.414 0l-1.293 1.293-1.293-1.293c-.391-.391-1.023-.391-1.414 0l-1.293 1.293-1.293-1.293c-.391-.391-1.023-.391-1.414 0l-1.293 1.293-1.293-1.293c-.391-.391-1.023-.391-1.414 0l-1.293 1.293-1.293-1.293c-.391-.391-1.023-.391-1.414 0l-1.293 1.293-1.293-1.293c-.391-.391-1.023-.391-1.414 0l-1.293 1.293-1.293-1.293c-.391-.391-1.023-.391-1.414 0l-1.293 1.293-1.293-1.293c-.391-.391-1.023-.391-1.414 0l-1.293 1.293-1.293-1.293c-.391-.391-1.023-.391-1.414 0l-1.293 1.293-1.293-1.293c-.391-.391-1.023-.391-1.414 0l-1.293 1.293-1.293-1.293c-.391-.391-1.023-.391-1.414 0l-1.293 1.293-1.293-1.293c-.391-.391-1.023-.391-1.414 0s-.391 1.023 0 1.414l2 2c.195.195.451.293.707.293s.512-.098.707-.293l1.293-1.293 1.293 1.293c.195.195.451.293.707.293s.512-.098.707-.293l1.293-1.293 1.293 1.293c.195.195.451.293.707.293s.512-.098.707-.293l1.293-1.293 1.293 1.293c.195.195.451.293.707.293s.512-.098.707-.293l1.293-1.293 1.293 1.293c.195.195.451.293.707.293s.512-.098.707-.293l1.293-1.293 1.293 1.293c.195.195.451.293.707.293s.512-.098.707-.293l1.293-1.293 1.293 1.293c.195.195.451.293.707.293s.512-.098.707-.293l1.293-1.293 1.293 1.293c.195.195.451.293.707.293s.512-.098.707-.293l1.293-1.293 1.293 1.293c.195.195.451.293.707.293s.512-.098.707-.293l1.293-1.293 1.293 1.293c.195.195.451.293.707.293s.512-.098.707-.293l1.293-1.293 1.293 1.293c.195.195.451.293.707.293s.512-.098.707-.293l1.293-1.293 1.293 1.293c.195.195.451.293.707.293s.512-.098.707-.293l2-2c.391-.391.391-1.023 0-1.414s-1.023-.391-1.414 0z" fill="#eab081"/><circle cx="16" cy="7.25" fill="#e6e9ed" r="2.5"/><circle cx="26" cy="3.25" fill="#e6e9ed" r="2.5"/><g fill="#8cc152"><path d="m60.818 27.036c-.121-.813-.294-1.606-.539-2.371-3.663-1.688-6.474-4.904-7.608-8.834-.729-.362-1.483-.68-2.272-.922 1.059 5.652 5.098 10.252 10.419 12.127z"/><path d="m48.307 14.445c-.671-.104-1.353-.17-2.049-.183.74 6.407 4.52 11.89 9.856 14.987h4.886c0-.016-.002-.03-.002-.046-6.666-1.979-11.712-7.723-12.691-14.758z"/><path d="m44.248 14.363c-.672.078-1.328.204-1.969.367.656 5.678 3.302 10.754 7.22 14.52h3.041c-4.53-3.563-7.634-8.861-8.292-14.887z"/><path d="m44.117 29.25h2.604c-3.392-3.799-5.682-8.596-6.378-13.891-.656.268-1.285.587-1.891.941.757 4.838 2.761 9.263 5.665 12.95z"/><path d="m39.211 29.25h2.412c-2.438-3.441-4.168-7.413-4.98-11.709-.259.208-.519.415-.763.639-.331.303-.642.626-.944.957.839 3.647 2.303 7.057 4.275 10.113z"/><path d="m34.551 29.25h2.306c-1.487-2.507-2.658-5.221-3.466-8.087-.512.795-.948 1.639-1.304 2.526.669 1.932 1.491 3.792 2.464 5.561z"/></g><path d="m12.259 24.263c-.094-.003-.185-.013-.278-.013-.723 0-1.419.106-2.093.271 1.349 1.708 2.848 3.291 4.479 4.729h3.143c-1.923-1.473-3.683-3.146-5.251-4.987z" fill="#37bc9b"/><path d="m7.922 25.255c-.598.31-1.166.669-1.677 1.101.76 1.003 1.563 1.969 2.412 2.895h2.775c-1.26-1.248-2.432-2.584-3.51-3.996z" fill="#37bc9b"/><path d="m34.114 16.589c-.677-.499-1.405-.932-2.181-1.282-3.234 1.196-6.729 1.852-10.375 1.852-.759 0-1.51-.038-2.255-.094-.653.548-1.25 1.158-1.773 1.831 1.32.167 2.663.263 4.028.263 4.456-.001 8.699-.918 12.556-2.57z" fill="#967adc"/><path d="m33.4 21.147c.702-1.09 1.526-2.094 2.479-2.968-.043-.047-.092-.088-.135-.134-4.321 1.992-9.124 3.112-14.187 3.112-1.771 0-3.509-.137-5.207-.398-.312.603-.568 1.234-.775 1.893 1.947.327 3.944.506 5.982.506 4.15 0 8.132-.714 11.843-2.011z" fill="#967adc"/><path d="m31.374 25.936c.178-.785.429-1.542.725-2.275-3.35.969-6.883 1.498-10.54 1.498-2.192 0-4.338-.197-6.43-.555-.01.069-.03.136-.039.206 1.276.478 2.405 1.244 3.327 2.214 1.038.081 2.083.135 3.142.135 3.385-.001 6.673-.428 9.815-1.223z" fill="#967adc"/></svg>